<?xml version="1.0" standalone="no"?>
<!DOCTYPE svg PUBLIC "-//W3C//DTD SVG 20010904//EN"
 "http://www.w3.org/TR/2001/REC-SVG-20010904/DTD/svg10.dtd">
<svg version="1.0" xmlns="http://www.w3.org/2000/svg"
 width="86.000000pt" height="85.000000pt" viewBox="0 0 86.000000 85.000000"
 preserveAspectRatio="xMidYMid meet">
<metadata>
Created by potrace 1.16, written by Peter Selinger 2001-2019
</metadata>
<g transform="translate(0.000000,85.000000) scale(0.100000,-0.100000)"
fill="#000000" stroke="none">
<path d="M0 425 l0 -425 198 1 c180 1 192 2 142 13 -125 28 -226 110 -287 234
-34 68 -37 81 -37 161 0 101 5 125 46 209 88 178 313 266 507 198 104 -36 177
-96 222 -182 27 -50 21 -96 -19 -141 -31 -35 -34 -44 -36 -98 -1 -24 -8 -46
-18 -56 -10 -9 -18 -21 -18 -28 0 -6 -5 -11 -11 -11 -5 0 -7 -4 -4 -10 3 -5
-8 -23 -25 -40 -26 -25 -32 -27 -37 -14 -6 15 -8 15 -20 -2 -12 -16 -13 -16
-13 -1 0 19 -17 22 -40 7 -12 -8 -12 -10 5 -10 24 -1 65 -50 42 -50 -8 0 -20
6 -26 14 -16 19 -71 1 -71 -22 1 -42 30 -50 72 -21 l30 22 -7 -22 c-3 -11 -2
-21 3 -21 5 0 10 -11 10 -25 0 -14 -5 -25 -10 -25 -5 0 -7 -8 -4 -18 8 -23
-27 -41 -99 -52 -33 -5 22 -8 158 -9 l207 -1 0 425 0 425 -430 0 -430 0 0
-425z"/>
<path d="M560 332 c0 -7 -4 -10 -10 -7 -5 3 -10 -1 -10 -10 0 -12 5 -15 18
-10 13 5 14 3 5 -6 -6 -6 -9 -17 -7 -24 7 -16 44 -7 44 10 0 7 6 16 13 18 10
4 10 6 0 6 -7 1 -13 10 -13 20 0 14 -6 19 -20 18 -11 -1 -20 -7 -20 -15z"/>
<path d="M475 221 c-3 -5 0 -13 6 -17 7 -4 9 -3 5 4 -3 5 0 13 6 15 9 4 10 6
1 6 -6 1 -14 -3 -18 -8z"/>
</g>
</svg>
